<svg xmlns="http://www.w3.org/2000/svg" version="1.1" xmlns:xlink="http://www.w3.org/1999/xlink" xmlns:svgjs="http://svgjs.dev/svgjs" width="128" height="128" viewBox="0 0 128 128"><g transform="matrix(0.44782608695652176,0,0,0.44782608695652176,35.33913456194782,12.5)"><svg viewBox="0 0 125 225" data-background-color="#ffffff" preserveAspectRatio="xMidYMid meet" height="230" width="128" xmlns="http://www.w3.org/2000/svg" xmlns:xlink="http://www.w3.org/1999/xlink"><g id="tight-bounds" transform="matrix(1,0,0,1,0.000009000000005698894,0)"><svg viewBox="0 0 125 225" height="225" width="125"><g><svg></svg></g><g><svg viewBox="0 0 125 225" height="225" width="125"><g><path transform="translate(-11.55213,38.52192) scale(1.48104,1.48104)" d="M50 13.6c19.1 0 34.8 14.8 36.3 33.5h5.9c-0.3-4.7-1.4-9.2-3.2-13.5-2.1-5-5.2-9.6-9.1-13.4-3.9-3.9-8.4-6.9-13.4-9.1-5.3-2.2-10.8-3.4-16.5-3.4-5.7 0-11.2 1.1-16.5 3.3-5 2.1-9.6 5.2-13.4 9.1-3.9 3.9-6.9 8.4-9.1 13.4-1.8 4.3-2.9 8.9-3.2 13.5h5.9c1.5-18.6 17.2-33.4 36.3-33.4zM50 86.4c-19.1 0-34.8-14.8-36.3-33.5h-5.9c0.3 4.7 1.4 9.2 3.2 13.5 2.1 5 5.2 9.6 9.1 13.4 3.9 3.9 8.4 6.9 13.4 9.1 5.2 2.2 10.7 3.3 16.5 3.3 5.8 0 11.2-1.1 16.5-3.3 5-2.1 9.6-5.2 13.4-9.1 3.9-3.9 6.9-8.4 9.1-13.4 1.8-4.3 2.9-8.9 3.2-13.5h-5.9c-1.5 18.7-17.2 33.5-36.3 33.5z" fill="#ff385c" fill-rule="nonzero" stroke="none" stroke-width="1" stroke-linecap="butt" stroke-linejoin="miter" stroke-miterlimit="10" stroke-dasharray="" stroke-dashoffset="0" font-family="none" font-weight="none" font-size="none" text-anchor="none" style="mix-blend-mode: normal" data-fill-palette-color="tertiary"></path></g><g transform="matrix(1,0,0,1,46.9843375,101.75605475207668)"><svg viewBox="0 0 31.031325 21.48789049584664" height="21.48789049584664" width="31.031325"><g><svg viewBox="0 0 31.031325 21.48789049584664" height="21.48789049584664" width="31.031325"><g><svg viewBox="0 0 31.031325 21.48789049584664" height="21.48789049584664" width="31.031325"><g><svg viewBox="0 0 31.031325 21.48789049584664" height="21.48789049584664" width="31.031325"><g><svg viewBox="0 0 31.031325 21.48789049584664" height="21.48789049584664" width="31.031325"><g><svg viewBox="0 0 31.031325 21.48789049584664" height="21.48789049584664" width="31.031325"><g><svg xmlns="http://www.w3.org/2000/svg" xmlns:xlink="http://www.w3.org/1999/xlink" version="1.1" x="0" y="0" viewBox="-246.876 354.188 88.001 60.93700000000001" enable-background="new -255 347 100 100" xml:space="preserve" height="21.48789049584664" width="31.031325" class="icon-icon-0" data-fill-palette-color="accent" id="icon-0"><path d="M-240.964 412.473h-2.662c-1.795 0-3.25-1.455-3.25-3.25v-28.941c0-1.795 1.455-3.25 3.25-3.25h2.662c1.795 0 3.25 1.455 3.25 3.25v28.941C-237.714 411.018-239.169 412.473-240.964 412.473z" fill="#ff385c" data-fill-palette-color="accent"></path><g fill="#ff385c" data-fill-palette-color="accent"><path d="M-213.483 377.032h-17.815c-2.278 0-4.125 1.847-4.125 4.125v12.089h21.94V377.032z" fill="#ff385c" data-fill-palette-color="accent"></path><path d="M-235.423 402.803c0 2.278 1.847 4.125 4.125 4.125h38.282c2.278 0 4.125-1.847 4.125-4.125v-6.544h-46.532V402.803z" fill="#ff385c" data-fill-palette-color="accent"></path><path d="M-193.016 377.032h-17.815v16.214h21.94v-12.089C-188.891 378.878-190.738 377.032-193.016 377.032z" fill="#ff385c" data-fill-palette-color="accent"></path></g><rect x="-243.741" y="411.026" width="2.893" height="3.858" fill="#ff385c" data-fill-palette-color="accent"></rect><path d="M-180.689 412.473h-2.662c-1.795 0-3.25-1.455-3.25-3.25v-28.941c0-1.795 1.455-3.25 3.25-3.25h2.662c1.795 0 3.25 1.455 3.25 3.25v28.941C-177.439 411.018-178.894 412.473-180.689 412.473z" fill="#ff385c" data-fill-palette-color="accent"></path><rect x="-183.467" y="411.026" width="2.893" height="3.858" fill="#ff385c" data-fill-palette-color="accent"></rect><rect x="-169.483" y="364.494" width="1.447" height="50.631" fill="#ff385c" data-fill-palette-color="accent"></rect><rect x="-176.475" y="412.473" width="15.671" height="2.652" fill="#ff385c" data-fill-palette-color="accent"></rect><polygon points="-158.875,371.245 -178.404,371.245 -173.039,354.188 -163.877,354.248 " fill="#ff385c" data-fill-palette-color="accent"></polygon></svg></g></svg></g></svg></g></svg></g></svg></g><g></g></svg></g></svg></g></svg></g><defs></defs></svg><rect width="125" height="225" fill="none" stroke="none" visibility="hidden"></rect></g></svg></g></svg>